# xmcd CD database file
#
# Track frame offsets:
#	150
#	20923
#	38846
#	55283
#	70589
#	93074
#	109030
#	130651
#	148358
#	162394
#	179480
#	198835
#	217892
#	240512
#	265294
#	284919
#	299441
#	318876
#
# Disc length: 4379 seconds
#
# Revision: 2
# Processed by: cddbd v1.5.1PL0 Copyright (c) Steve Scherf et al.
# Submitted via: CDex 1.51
#
DISCID=13111912
DTITLE=Varios - Grandes Nomes da MPB 3
DYEAR=2004
DGENRE=MPB
TTITLE0=Disparada-Elba e Ze Ramalho e Gera Azevedo
TTITLE1=Chorando e cantando-Gealdo Azevedo
TTITLE2=Tudo outra vez-Belchior
TTITLE3=Senhorita-Ze Geraldo
TTITLE4=Avohai-Ze Ramalho
TTITLE5=Enquando engomo a calca-Ednardo
TTITLE6=Anunciacao-Alceu Valenca
TTITLE7=Eternas Ondas-Fagner
TTITLE8=Veja Margarida-Elba Ramalho
TTITLE9=Cancao da despedida-Geraldo Azevedo
TTITLE10=Apenas um rapaz latino americano-Belchior
TTITLE11=O profeta-Ze Geraldo
TTITLE12=Cancao agalopada-Ze Ramalho
TTITLE13=Noturno-Fagner
TTITLE14=Pavao misterioso-Ednardo
TTITLE15=Solidão-Alceu Valenca
TTITLE16=Todo sujo de baton-Geraldo Azevedo
TTITLE17=Dia Branco-Geraldo Azevedp
EXTD=YEAR: 2004
EXTT0=
EXTT1=
EXTT2=
EXTT3=
EXTT4=
EXTT5=
EXTT6=
EXTT7=
EXTT8=
EXTT9=
EXTT10=
EXTT11=
EXTT12=
EXTT13=
EXTT14=
EXTT15=
EXTT16=
EXTT17=
PLAYORDER=
